# xmcd CD database file
#
# Track frame offsets:
#	150
#	15900
#	27750
#	40425
#	52650
#	72975
#	89625
#	104025
#	119250
#	134250
#	149700
#	168150
#
# Disc length: 2423 seconds
#
# Revision: 1
# Processed by: cddbd v1.5.1PL0 Copyright (c) Steve Scherf et al.
# Submitted via: freeDBTagger 0.5
#
DISCID=a409750c
DTITLE=モップス - モップスと１６人の仲間
DYEAR=1900
DGENRE=folk
TTITLE0=たどりついたらいつも雨ふり(詞)吉田拓郎(曲)吉田拓郎(編)モップス
TTITLE1=大江戸冒険譚(詞)角田ヒロ(曲)加藤和彦(編)モップス
TTITLE2=いつか(詞)猪野佳久(曲)岩沢幸矢(編)モップス
TTITLE3=マイ・ホーム(詞)忌野清志郎(曲)肝沢幅一(編)モップス
TTITLE4=母さんまっ青(詞)スズキミキハル(曲)星勝(編)モップス
TTITLE5=くるまとんぼ・アンドロメダ(詞)及川恒平(曲)小室等(編)モップス
TTITLE6=あるがままに(詞)左真樹(曲)杉田二郎(編)モップス
TTITLE7=ねえ、ちょいとそこゆくお嬢さん(詞,曲)遠藤賢司(編)モップス
TTITLE8=当世少女気質(詞)泉谷しげる(曲)泉谷しげる(編)モップス
TTITLE9=窓をあけろ(詞)井上陽水(曲)井上陽水(編)モップス
TTITLE10=もう，いやだよ(詞)スズキミキハル(曲)星勝(編)モップス
TTITLE11=輪廻(詞)伊藤アキラ(曲)かまやつひろし(編)モップス
EXTD=
EXTT0=
EXTT1=
EXTT2=
EXTT3=
EXTT4=
EXTT5=
EXTT6=
EXTT7=
EXTT8=
EXTT9=
EXTT10=
EXTT11=
PLAYORDER=
